<svg width="28" height="28" viewBox="0 0 28 28" fill="none" xmlns="http://www.w3.org/2000/svg">
<path d="M9.33127 24.584C9.02047 24.2731 8.84588 23.8515 8.84588 23.4119C8.84588 22.9723 9.02047 22.5507 9.33127 22.2398L17.5375 14.0336L9.33127 5.82748C9.02928 5.51482 8.86218 5.09605 8.86596 4.66138C8.86974 4.22671 9.04409 3.81091 9.35146 3.50353C9.65883 3.19616 10.0746 3.02181 10.5093 3.01804C10.944 3.01426 11.3627 3.18136 11.6754 3.48334L21.0537 12.8616C21.3645 13.1725 21.5391 13.5941 21.5391 14.0336C21.5391 14.4732 21.3645 14.8948 21.0537 15.2057L11.6754 24.584C11.3645 24.8947 10.9429 25.0693 10.5033 25.0693C10.0637 25.0693 9.64215 24.8947 9.33127 24.584Z" fill="#FF5758"/>
</svg>
