<svg width="27" height="27" viewBox="0 0 27 27" fill="none" xmlns="http://www.w3.org/2000/svg">
<path d="M17.7976 23.9004C18.1084 23.5895 18.283 23.1679 18.283 22.7283C18.283 22.2887 18.1084 21.8671 17.7976 21.5562L9.59146 13.3501L17.7976 5.14389C18.0996 4.83122 18.2667 4.41246 18.2629 3.97779C18.2592 3.54311 18.0848 3.12731 17.7774 2.81994C17.4701 2.51257 17.0543 2.33822 16.6196 2.33444C16.1849 2.33067 15.7662 2.49776 15.4535 2.79975L6.07523 12.178C5.76444 12.4889 5.58984 12.9105 5.58984 13.3501C5.58984 13.7896 5.76444 14.2112 6.07523 14.5221L15.4535 23.9004C15.7644 24.2111 16.186 24.3857 16.6256 24.3857C17.0652 24.3857 17.4868 24.2111 17.7976 23.9004Z" fill="#FF5758"/>
</svg>
