<svg width="66" height="67" viewBox="0 0 66 67" fill="none" xmlns="http://www.w3.org/2000/svg">
<g clip-path="url(#clip0_543_2712)">
<path d="M33 65.6533C17.6795 65.6533 10.0193 65.6533 5.258 60.8921C0.5 56.1373 0.5 48.4738 0.5 33.1533C0.5 17.8328 0.5 10.1726 5.258 5.41132C10.0225 0.65332 17.6795 0.65332 33 0.65332C48.3205 0.65332 55.9808 0.65332 60.7388 5.41132C65.5 10.1758 65.5 17.8328 65.5 33.1533C65.5 48.4738 65.5 56.1341 60.7388 60.8921C55.984 65.6533 48.3205 65.6533 33 65.6533Z" fill="#FF5758"/>
<path d="M54.9375 20.1533C54.9375 20.7998 54.6807 21.4198 54.2236 21.8769C53.7665 22.334 53.1465 22.5908 52.5 22.5908H13.5C12.8535 22.5908 12.2335 22.334 11.7764 21.8769C11.3193 21.4198 11.0625 20.7998 11.0625 20.1533C11.0625 19.5069 11.3193 18.8869 11.7764 18.4297C12.2335 17.9726 12.8535 17.7158 13.5 17.7158H52.5C53.1465 17.7158 53.7665 17.9726 54.2236 18.4297C54.6807 18.8869 54.9375 19.5069 54.9375 20.1533ZM48.4375 33.1533C48.4375 33.7998 48.1807 34.4198 47.7236 34.8769C47.2665 35.334 46.6465 35.5908 46 35.5908H20C19.3535 35.5908 18.7335 35.334 18.2764 34.8769C17.8193 34.4198 17.5625 33.7998 17.5625 33.1533C17.5625 32.5069 17.8193 31.8869 18.2764 31.4297C18.7335 30.9726 19.3535 30.7158 20 30.7158H46C46.6465 30.7158 47.2665 30.9726 47.7236 31.4297C48.1807 31.8869 48.4375 32.5069 48.4375 33.1533ZM41.9375 46.1533C41.9375 46.7998 41.6807 47.4198 41.2236 47.8769C40.7665 48.334 40.1465 48.5908 39.5 48.5908H26.5C25.8535 48.5908 25.2335 48.334 24.7764 47.8769C24.3193 47.4198 24.0625 46.7998 24.0625 46.1533C24.0625 45.5069 24.3193 44.8869 24.7764 44.4297C25.2335 43.9726 25.8535 43.7158 26.5 43.7158H39.5C40.1465 43.7158 40.7665 43.9726 41.2236 44.4297C41.6807 44.8869 41.9375 45.5069 41.9375 46.1533Z" fill="white"/>
</g>
<defs>
<clipPath id="clip0_543_2712">
<rect width="66" height="66" fill="white" transform="translate(0 0.15332)"/>
</clipPath>
</defs>
</svg>
