<svg width="44" height="45" viewBox="0 0 44 45" fill="none" xmlns="http://www.w3.org/2000/svg">
<path d="M39.8022 37.3517L33.0006 30.6051C35.6407 27.3131 36.9193 23.1348 36.5734 18.9291C36.2274 14.7234 34.2833 10.8102 31.1407 7.9939C27.9981 5.17765 23.8959 3.67249 19.6776 3.78792C15.4593 3.90335 11.4455 5.63059 8.46165 8.61448C5.47775 11.5984 3.75051 15.6121 3.63509 19.8304C3.51966 24.0487 5.02482 28.1509 7.84107 31.2935C10.6573 34.4361 14.5706 36.3803 18.7763 36.7262C22.9819 37.0721 27.1603 35.7936 30.4522 33.1534L37.1989 39.9001C37.3693 40.0719 37.5721 40.2083 37.7955 40.3014C38.0189 40.3944 38.2585 40.4424 38.5006 40.4424C38.7426 40.4424 38.9822 40.3944 39.2056 40.3014C39.429 40.2083 39.6318 40.0719 39.8022 39.9001C40.1327 39.5582 40.3174 39.1013 40.3174 38.6259C40.3174 38.1504 40.1327 37.6936 39.8022 37.3517ZM20.1672 33.1534C17.629 33.1534 15.1478 32.4007 13.0374 30.9906C10.927 29.5804 9.28209 27.5761 8.31077 25.2312C7.33944 22.8862 7.0853 20.3058 7.58048 17.8164C8.07566 15.327 9.29791 13.0403 11.0927 11.2455C12.8875 9.45075 15.1741 8.22849 17.6636 7.73331C20.153 7.23813 22.7333 7.49228 25.0783 8.4636C27.4233 9.43493 29.4276 11.0798 30.8377 13.1902C32.2479 15.3007 33.0006 17.7819 33.0006 20.3201C33.0006 23.7237 31.6485 26.9879 29.2418 29.3946C26.835 31.8013 23.5708 33.1534 20.1672 33.1534Z" fill="#928585"/>
</svg>
