<svg xmlns="http://www.w3.org/2000/svg" xmlns:xlink="http://www.w3.org/1999/xlink" width="500" zoomAndPan="magnify"
    viewBox="250 275 175 125" height="500" preserveAspectRatio="xMidYMid meet" version="1.0">
    <defs>
        <clipPath id="05bfed6aad">
            <path d="M 0.5 0 L 674.5 0 L 674.5 674 L 0.5 674 Z M 0.5 0 " clip-rule="nonzero" />
        </clipPath>
        <clipPath id="784faecf6a">
            <path
                d="M 287.023438 273.90625 L 388.125 273.90625 L 388.125 400.46875 L 287.023438 400.46875 Z M 287.023438 273.90625 "
                clip-rule="nonzero" />
        </clipPath>
    </defs>
    <g clip-path="url(#05bfed6aad)">
        <path fill="#ffffff" d="M 0.5 0 L 674.5 0 L 674.5 674 L 0.5 674 Z M 0.5 0 " fill-opacity="1"
            fill-rule="nonzero" />
        <path fill="#ff5758" d="M 0.5 0 L 674.5 0 L 674.5 674 L 0.5 674 Z M 0.5 0 " fill-opacity="1"
            fill-rule="nonzero" />
    </g>
    <g clip-path="url(#784faecf6a)">
        <path fill="#ff5758"
            d="M 248.71875 -5.65625 L 935.453125 -5.65625 L 935.453125 681.074219 L 248.71875 681.074219 Z M 248.71875 -5.65625 "
            fill-opacity="1" fill-rule="evenodd" />
    </g>
    <path fill="#ffffff"
        d="M 371.335938 299.121094 C 367.84375 295.492188 363.585938 292.652344 358.574219 290.609375 C 353.558594 288.5625 347.820312 287.539062 341.359375 287.539062 C 333.441406 287.539062 326.550781 288.859375 320.679688 291.5 C 314.804688 294.136719 309.992188 297.699219 306.234375 302.1875 C 302.472656 306.671875 299.667969 311.949219 297.820312 318.019531 C 295.972656 324.085938 295.050781 330.550781 295.050781 337.410156 C 295.050781 345.066406 296.042969 351.988281 298.019531 358.191406 C 300 364.394531 303.03125 369.703125 307.125 374.121094 C 311.214844 378.542969 316.292969 381.9375 322.363281 384.3125 C 328.429688 386.6875 335.554688 387.875 343.738281 387.875 C 350.199219 387.875 356.167969 387.21875 361.644531 385.894531 C 367.121094 384.578125 371.964844 382.664062 376.191406 380.15625 L 370.644531 362.546875 C 363.121094 366.503906 355.074219 368.484375 346.5 368.484375 C 340.167969 368.484375 334.527344 366.734375 329.582031 363.242188 C 324.632812 359.742188 321.4375 354.105469 319.984375 346.320312 L 379.148438 346.320312 C 379.941406 343.945312 380.601562 341.109375 381.128906 337.8125 C 381.65625 334.511719 381.921875 331.347656 381.921875 328.3125 C 381.921875 322.511719 381.03125 317.101562 379.246094 312.085938 C 377.472656 307.070312 374.835938 302.746094 371.335938 299.121094 Z M 319.390625 331.476562 C 320.050781 323.558594 322.324219 317.324219 326.21875 312.773438 C 330.109375 308.222656 335.21875 305.949219 341.554688 305.949219 C 347.097656 305.949219 351.25 307.894531 354.023438 311.785156 C 356.792969 315.679688 358.179688 321.382812 358.179688 328.902344 L 358.179688 331.476562 Z M 319.390625 331.476562 "
        fill-opacity="1" fill-rule="nonzero" />
</svg>