<svg width="56" height="58" viewBox="0 0 56 58" fill="none" xmlns="http://www.w3.org/2000/svg">
<path d="M27.182 0.788596C27.4844 0.060671 28.5156 0.06067 28.818 0.788595L33.0726 11.0302C33.2812 11.5323 33.8887 11.7297 34.3526 11.4461L43.8144 5.66124C44.487 5.25008 45.3212 5.85618 45.138 6.62283L42.5602 17.4092C42.4338 17.938 42.8092 18.4548 43.3512 18.498L54.4063 19.3796C55.192 19.4422 55.5107 20.4229 54.9118 20.9355L46.4863 28.1466C46.0732 28.5002 46.0732 29.139 46.4863 29.4925L54.9118 36.7037C55.5107 37.2162 55.192 38.1969 54.4063 38.2596L43.3512 39.1411C42.8093 39.1843 42.4338 39.7011 42.5602 40.2299L45.138 51.0163C45.3212 51.783 44.487 52.3891 43.8144 51.9779L34.3526 46.1931C33.8887 45.9095 33.2812 46.1069 33.0726 46.609L28.818 56.8506C28.5156 57.5785 27.4844 57.5785 27.182 56.8506L22.9274 46.609C22.7188 46.1069 22.1113 45.9095 21.6474 46.1931L12.1856 51.9779C11.513 52.3891 10.6788 51.783 10.862 51.0163L13.4398 40.2299C13.5662 39.7011 13.1907 39.1843 12.6488 39.1411L1.59372 38.2596C0.807974 38.1969 0.489328 37.2162 1.08818 36.7037L9.51374 29.4925C9.92682 29.139 9.92682 28.5002 9.51374 28.1466L1.08818 20.9355C0.489329 20.4229 0.807974 19.4422 1.59372 19.3796L12.6488 18.498C13.1907 18.4548 13.5662 17.938 13.4398 17.4092L10.862 6.62283C10.6788 5.85618 11.513 5.25008 12.1856 5.66124L21.6474 11.4461C22.1113 11.7297 22.7188 11.5323 22.9274 11.0302L27.182 0.788596Z" fill="white"/>
</svg>
