<svg width="24" height="25" viewBox="0 0 24 25" fill="none" xmlns="http://www.w3.org/2000/svg">
<path fill-rule="evenodd" clip-rule="evenodd" d="M12 3.84668C9.5556 3.84668 9.2496 3.85688 8.2896 3.90068C7.3314 3.94448 6.6768 4.09688 6.1044 4.31948C5.5044 4.54508 4.9602 4.89908 4.5102 5.35748C4.05253 5.80696 3.69831 6.35078 3.4722 6.95108C3.2508 7.52348 3.0978 8.17868 3.054 9.13688C3.0108 10.0963 3 10.4017 3 12.8467C3 15.2917 3.0102 15.5971 3.054 16.5571C3.0978 17.5153 3.2502 18.1699 3.4728 18.7423C3.6984 19.3423 4.0524 19.8865 4.5108 20.3365C4.96029 20.7941 5.50411 21.1483 6.1044 21.3745C6.6768 21.5965 7.3314 21.7489 8.2896 21.7927C9.2496 21.8365 9.5556 21.8467 12 21.8467C14.4444 21.8467 14.7504 21.8365 15.7104 21.7927C16.6686 21.7489 17.3232 21.5965 17.8956 21.3739C18.4956 21.1483 19.0398 20.7943 19.4898 20.3359C19.9475 19.8864 20.3017 19.3426 20.5278 18.7423C20.7498 18.1699 20.9022 17.5153 20.946 16.5571C20.9898 15.5971 21 15.2911 21 12.8467C21 10.4023 20.9898 10.0963 20.946 9.13628C20.9022 8.17808 20.7498 7.52348 20.5272 6.95108C20.3012 6.35052 19.947 5.80647 19.4892 5.35688C19.0397 4.89921 18.4959 4.54499 17.8956 4.31888C17.3232 4.09748 16.668 3.94448 15.7098 3.90068C14.7504 3.85748 14.445 3.84668 12 3.84668ZM12 5.46848C14.403 5.46848 14.688 5.47748 15.6372 5.52068C16.5144 5.56088 16.9908 5.70668 17.3082 5.83088C17.7282 5.99348 18.0282 6.18908 18.3432 6.50348C18.6582 6.81848 18.8532 7.11848 19.0158 7.53848C19.1394 7.85588 19.2858 8.33228 19.326 9.20948C19.3692 10.1587 19.3782 10.4437 19.3782 12.8467C19.3782 15.2497 19.3692 15.5347 19.326 16.4839C19.2858 17.3611 19.14 17.8375 19.0158 18.1549C18.8718 18.5458 18.6419 18.8995 18.3432 19.1899C18.0528 19.4887 17.6992 19.7185 17.3082 19.8625C16.9908 19.9861 16.5144 20.1325 15.6372 20.1727C14.688 20.2159 14.4036 20.2249 12 20.2249C9.5964 20.2249 9.312 20.2159 8.3628 20.1727C7.4856 20.1325 7.0092 19.9867 6.6918 19.8625C6.30087 19.7184 5.9472 19.4886 5.6568 19.1899C5.35811 18.8995 5.12828 18.5458 4.9842 18.1549C4.8606 17.8375 4.7142 17.3611 4.674 16.4839C4.6308 15.5347 4.6218 15.2497 4.6218 12.8467C4.6218 10.4437 4.6308 10.1587 4.674 9.20948C4.7142 8.33228 4.86 7.85588 4.9842 7.53848C5.1468 7.11848 5.3424 6.81848 5.6568 6.50348C5.94716 6.20471 6.30085 5.97487 6.6918 5.83088C7.0092 5.70728 7.4856 5.56088 8.3628 5.52068C9.312 5.47748 9.597 5.46848 12 5.46848Z" fill="#FFDADA"/>
<path fill-rule="evenodd" clip-rule="evenodd" d="M12 15.8495C11.6057 15.8495 11.2152 15.7718 10.8508 15.6209C10.4865 15.47 10.1554 15.2488 9.87658 14.9699C9.59773 14.6911 9.37653 14.36 9.22561 13.9957C9.0747 13.6313 8.99702 13.2408 8.99702 12.8465C8.99702 12.4521 9.0747 12.0616 9.22561 11.6973C9.37653 11.3329 9.59773 11.0019 9.87658 10.723C10.1554 10.4442 10.4865 10.223 10.8508 10.0721C11.2152 9.92114 11.6057 9.84347 12 9.84347C12.7965 9.84347 13.5603 10.1599 14.1235 10.723C14.6866 11.2862 15.003 12.05 15.003 12.8465C15.003 13.6429 14.6866 14.4067 14.1235 14.9699C13.5603 15.5331 12.7965 15.8495 12 15.8495ZM12 8.22047C10.7731 8.22047 9.59649 8.70785 8.72895 9.57539C7.8614 10.4429 7.37402 11.6196 7.37402 12.8465C7.37402 14.0734 7.8614 15.25 8.72895 16.1175C9.59649 16.9851 10.7731 17.4725 12 17.4725C13.2269 17.4725 14.4036 16.9851 15.2711 16.1175C16.1386 15.25 16.626 14.0734 16.626 12.8465C16.626 11.6196 16.1386 10.4429 15.2711 9.57539C14.4036 8.70785 13.2269 8.22047 12 8.22047ZM17.9718 8.13647C17.9718 8.42648 17.8566 8.70462 17.6515 8.90969C17.4465 9.11476 17.1683 9.22997 16.8783 9.22997C16.5883 9.22997 16.3102 9.11476 16.1051 8.90969C15.9 8.70462 15.7848 8.42648 15.7848 8.13647C15.7848 7.84645 15.9 7.56832 16.1051 7.36325C16.3102 7.15818 16.5883 7.04297 16.8783 7.04297C17.1683 7.04297 17.4465 7.15818 17.6515 7.36325C17.8566 7.56832 17.9718 7.84645 17.9718 8.13647Z" fill="#FFDADA"/>
</svg>
