<svg width="24" height="25" viewBox="0 0 24 25" fill="none" xmlns="http://www.w3.org/2000/svg">
    <path
        d="M19.9525 8.76642C19.9647 8.94273 19.9647 9.11905 19.9647 9.29699C19.9647 14.7189 15.8371 20.972 8.28966 20.972V20.9687C6.06013 20.972 3.8769 20.3333 2 19.1292C2.32419 19.1682 2.65001 19.1877 2.97664 19.1885C4.82429 19.1901 6.61913 18.5702 8.07272 17.4286C6.31688 17.3953 4.77717 16.2505 4.23928 14.5791C4.85436 14.6978 5.48812 14.6734 6.09181 14.5084C4.17753 14.1217 2.80033 12.4398 2.80033 10.4865C2.80033 10.4686 2.80033 10.4516 2.80033 10.4345C3.37071 10.7522 4.00934 10.9285 4.6626 10.948C2.85964 9.74306 2.30388 7.34452 3.39265 5.46924C5.47593 8.03272 8.54966 9.59112 11.8493 9.75606C11.5186 8.33091 11.9703 6.83751 13.0364 5.83568C14.689 4.28216 17.2882 4.36179 18.8418 6.01362C19.7607 5.83243 20.6415 5.49524 21.4475 5.01748C21.1412 5.96731 20.5001 6.77414 19.6437 7.28683C20.457 7.19095 21.2517 6.9732 22 6.64088C21.4491 7.4664 20.7552 8.18547 19.9525 8.76642Z"
        fill="#FFDADA" />
</svg>