<svg width="125" height="37" viewBox="0 0 125 37" fill="none" xmlns="http://www.w3.org/2000/svg">
<path d="M17.6038 12.77C16.9264 11.4712 15.9522 10.3505 14.7602 9.49905C13.5682 8.64762 12.1921 8.08948 10.7438 7.87C5.44378 7.15 2.07378 11.61 1.87378 11.87C0.515809 13.833 -0.13637 16.1985 0.0237842 18.58C-0.0467744 21.2871 0.910813 23.9205 2.70378 25.95C6.22378 29.66 11.4938 28.95 12.4138 28.79C14.0687 28.5474 15.6592 27.9799 17.0938 27.12L15.9238 23.44C14.6261 24.2723 13.1249 24.7323 11.5838 24.77C10.741 24.8541 9.88993 24.7644 9.08321 24.5064C8.2765 24.2484 7.53132 23.8276 6.89378 23.27C6.05565 22.4041 5.52513 21.2868 5.38378 20.09H9.10378C8.97001 20.4378 8.90218 20.8074 8.90378 21.18C8.88078 21.5678 8.93731 21.9562 9.06988 22.3214C9.20246 22.6865 9.40829 23.0207 9.67473 23.3034C9.94117 23.5861 10.2626 23.8114 10.6193 23.9654C10.9759 24.1193 11.3603 24.1987 11.7488 24.1987C12.1373 24.1987 12.5216 24.1193 12.8783 23.9654C13.235 23.8114 13.5564 23.5861 13.8228 23.3034C14.0893 23.0207 14.2951 22.6865 14.4277 22.3214C14.5603 21.9562 14.6168 21.5678 14.5938 21.18C14.5954 20.8074 14.5276 20.4378 14.3938 20.09H17.7738C18.2492 18.9235 18.4794 17.6716 18.4502 16.4123C18.4209 15.153 18.1328 13.9132 17.6038 12.77ZM5.22378 16.99C5.26917 16.2327 5.4702 15.4928 5.81431 14.8166C6.15842 14.1404 6.63823 13.5425 7.22378 13.06L7.35378 12.95C7.91573 12.5027 8.57991 12.2019 9.28676 12.0745C9.99361 11.947 10.721 11.9971 11.4038 12.22C12.2108 12.6837 12.8339 13.4106 13.1689 14.279C13.5039 15.1474 13.5303 16.1045 13.2438 16.99C10.5738 17.05 7.90378 16.93 5.22378 16.99ZM13.2238 21.76C12.9823 21.7347 12.7602 21.6159 12.6051 21.429C12.45 21.2422 12.3742 21.0021 12.3938 20.76C12.3894 20.5198 12.4631 20.2847 12.6038 20.09C12.6718 19.9873 12.7638 19.9027 12.8718 19.8435C12.9798 19.7843 13.1006 19.7522 13.2238 19.75C13.3481 19.7531 13.47 19.7855 13.5795 19.8445C13.689 19.9036 13.783 19.9877 13.8538 20.09C13.9944 20.2847 14.0681 20.5198 14.0638 20.76C14.0865 21.0006 14.0146 21.2406 13.8634 21.4291C13.7122 21.6176 13.4936 21.7399 13.2538 21.77L13.2238 21.76Z" fill="white"/>
<path d="M57.7838 12.77C57.1064 11.4712 56.1322 10.3505 54.9402 9.49905C53.7482 8.64762 52.3721 8.08948 50.9238 7.87C45.6138 7.15 42.2538 11.61 42.0538 11.87C40.6994 13.8309 40.0475 16.192 40.2038 18.57C40.1441 21.2754 41.1003 23.9049 42.8838 25.94C46.4138 29.65 51.6838 28.94 52.5938 28.78C54.2522 28.539 55.8463 27.9714 57.2838 27.11L56.1138 23.43C54.8105 24.2674 53.3024 24.7309 51.7538 24.77C50.9126 24.8539 50.0631 24.7641 49.258 24.5061C48.4529 24.248 47.7095 23.8273 47.0738 23.27C46.2357 22.4041 45.7051 21.2868 45.5638 20.09H49.2838C49.15 20.4378 49.0822 20.8074 49.0838 21.18C49.0608 21.5678 49.1173 21.9562 49.2499 22.3214C49.3825 22.6865 49.5883 23.0207 49.8547 23.3034C50.1212 23.5861 50.4426 23.8114 50.7993 23.9654C51.1559 24.1193 51.5403 24.1987 51.9288 24.1987C52.3173 24.1987 52.7016 24.1193 53.0583 23.9654C53.415 23.8114 53.7364 23.5861 54.0028 23.3034C54.2693 23.0207 54.4751 22.6865 54.6077 22.3214C54.7403 21.9562 54.7968 21.5678 54.7738 21.18C54.7775 20.8063 54.7061 20.4356 54.5638 20.09H57.9538C58.4263 18.9228 58.6549 17.6713 58.6257 16.4124C58.5964 15.1536 58.3099 13.914 57.7838 12.77ZM45.3938 16.99C45.4444 16.2338 45.6477 15.4957 45.9915 14.8203C46.3352 14.1448 46.8122 13.546 47.3938 13.06L47.5338 12.95C48.0898 12.5102 48.7453 12.2136 49.4428 12.0863C50.1402 11.959 50.8582 12.0049 51.5338 12.22C52.3408 12.6837 52.9639 13.4106 53.2989 14.279C53.6339 15.1474 53.6603 16.1045 53.3738 16.99C50.7538 17.05 48.0738 16.93 45.3938 16.99ZM53.3938 21.76C53.1505 21.7371 52.9259 21.6194 52.7687 21.4323C52.6115 21.2451 52.5343 21.0036 52.5538 20.76C52.5485 20.5181 52.6261 20.2817 52.7738 20.09C52.841 19.9868 52.9329 19.9021 53.0412 19.8434C53.1494 19.7847 53.2706 19.754 53.3938 19.754C53.5169 19.754 53.6381 19.7847 53.7464 19.8434C53.8546 19.9021 53.9466 19.9868 54.0138 20.09C54.1614 20.2817 54.2391 20.5181 54.2338 20.76C54.2566 20.9991 54.1861 21.2377 54.037 21.426C53.8879 21.6142 53.6717 21.7375 53.4338 21.77L53.3938 21.76Z" fill="white"/>
<path d="M20.2838 8.33V21.54C20.2702 22.52 20.4626 23.4919 20.8485 24.3928C21.2343 25.2938 21.8051 26.1036 22.5238 26.77C23.095 27.2907 23.7556 27.704 24.4738 27.99C25.985 28.5285 27.6284 28.5716 29.1658 28.1131C30.7031 27.6546 32.0544 26.7183 33.0238 25.44V27.39C33.0314 28.6071 32.5858 29.7834 31.7738 30.69C31.498 30.9883 31.1855 31.2504 30.8438 31.47C29.5669 32.1719 28.0859 32.4087 26.6538 32.14C24.9998 31.9963 23.3998 31.4801 21.9738 30.63L20.6238 34.82C23.9713 36.3531 27.6939 36.8744 31.3338 36.32C32.954 36.113 34.4719 35.4151 35.6838 34.32C37.09 33.0048 37.9831 31.2327 38.2038 29.32V8.32H33.0238V21.42C32.5856 22.2237 31.9281 22.8863 31.1279 23.3307C30.3277 23.7751 29.4176 23.9829 28.5038 23.93C28.0383 23.8827 27.5848 23.7541 27.1638 23.55C26.7591 23.3561 26.4182 23.0508 26.1808 22.67C25.9435 22.2892 25.8196 21.8487 25.8238 21.4V8.33C24.0238 8.27 22.1238 8.38 20.2838 8.33Z" fill="white"/>
<path d="M73.3538 0.67V10.67C72.6513 9.81172 71.7704 9.11667 70.7723 8.63314C69.7742 8.14961 68.6827 7.8892 67.5738 7.87C62.9138 7.87 59.1238 12.55 59.1238 18.33C59.1238 24.11 62.9138 28.77 67.5738 28.77C68.6843 28.7484 69.7767 28.4848 70.775 27.9978C71.7732 27.5108 72.6533 26.8119 73.3538 25.95L74.0238 28.29H78.7138V0.67H73.3538ZM73.3538 19.81C73.3625 20.5098 73.2175 21.203 72.9289 21.8406C72.6404 22.4782 72.2153 23.0447 71.6838 23.5C71.0136 24.096 70.1506 24.4298 69.2538 24.44C66.7138 24.44 64.6438 21.67 64.6438 18.25C64.6438 15.52 66.5238 12.07 69.2538 12.05C71.6438 12.05 73.2538 14.68 73.3538 14.9V19.81Z" fill="white"/>
<path d="M87.4138 8.37H82.0538V28.29H87.4138V8.37Z" fill="white"/>
<path d="M84.7338 6.02C86.3962 6.02 87.7438 4.67238 87.7438 3.01C87.7438 1.34762 86.3962 0 84.7338 0C83.0714 0 81.7238 1.34762 81.7238 3.01C81.7238 4.67238 83.0714 6.02 84.7338 6.02Z" fill="white"/>
<path d="M104.324 9.71C103.106 8.68201 101.608 8.04129 100.024 7.87C98.5733 7.64949 97.0942 7.70377 95.6638 8.03C93.9548 8.3702 92.3152 8.9956 90.8138 9.88L91.9838 13.39C93.0395 12.8436 94.1674 12.4496 95.3338 12.22C96.267 12.0241 97.2239 11.9668 98.1738 12.05C98.9519 12.0449 99.7129 12.2787 100.354 12.72L100.484 12.83C100.758 13.086 100.977 13.3957 101.126 13.7397C101.276 14.0837 101.353 14.4548 101.354 14.83V15.77H96.3538C94.9481 15.7324 93.5654 16.1315 92.3959 16.9123C91.2265 17.6931 90.3279 18.8173 89.8238 20.13C89.3234 21.5508 89.3157 23.0987 89.8018 24.5244C90.2879 25.9501 91.2397 27.1708 92.5038 27.99C93.9294 28.7888 95.6015 29.0277 97.1938 28.66C98.912 28.3075 100.452 27.3625 101.544 25.99C101.714 26.77 101.884 27.55 102.044 28.33H106.564V13.56C106.241 12.0729 105.457 10.7256 104.324 9.71ZM101.324 20.4C101.333 21.3077 101.083 22.1991 100.604 22.97C100.211 23.601 99.6499 24.11 98.9838 24.44C98.8338 24.51 96.6338 25.54 95.3038 24.27C94.9716 23.9183 94.7355 23.487 94.6181 23.0177C94.5008 22.5483 94.5062 22.0567 94.6338 21.59C94.8244 20.8744 95.2641 20.2503 95.8738 19.83C96.4651 19.4359 97.1634 19.2334 97.8738 19.25H101.374L101.324 20.4Z" fill="white"/>
<path d="M122.404 13.22L123.404 9.37C121.09 8.31394 118.566 7.80086 116.024 7.87C114.507 7.80262 113 8.14824 111.664 8.87C110.94 9.24703 110.3 9.76787 109.784 10.4006C109.268 11.0334 108.887 11.7648 108.664 12.55C108.487 13.5661 108.578 14.6109 108.929 15.5809C109.279 16.5509 109.878 17.4124 110.664 18.08C111.758 18.8019 112.945 19.3705 114.194 19.77C117.044 20.93 118.194 21.1 118.554 22.12C118.673 22.4547 118.704 22.8142 118.644 23.1643C118.585 23.5144 118.436 23.8434 118.214 24.12C117.734 24.68 117.014 24.73 116.044 24.79C115.033 24.834 114.021 24.7227 113.044 24.46C111.896 24.1757 110.778 23.784 109.704 23.29L108.524 27.14C110.689 28.2508 113.09 28.8236 115.524 28.81C117.874 28.81 121.124 28.75 122.894 26.3C123.523 25.4071 123.901 24.3619 123.989 23.2733C124.077 22.1846 123.871 21.0923 123.394 20.11C122.394 18.27 120.314 17.4 118.394 16.59C116.034 15.59 114.394 15.59 114.044 14.42C113.966 14.0944 113.97 13.7544 114.058 13.4312C114.145 13.108 114.312 12.8119 114.544 12.57C114.894 12.2 115.544 11.88 117.544 12.07C119.21 12.2241 120.846 12.6112 122.404 13.22Z" fill="white"/>
</svg>
